<svg width="84" height="90" viewBox="0 0 84 90" fill="none" xmlns="http://www.w3.org/2000/svg">
<path fill-rule="evenodd" clip-rule="evenodd" d="M29.1207 73.1063C29.8509 73.4099 30.5943 73.6883 31.3497 73.9403C34.6626 75.0457 38.2073 75.6444 41.8919 75.6444C60.2753 75.6444 75.178 60.7417 75.178 42.3582C75.178 23.9748 60.2753 9.0721 41.8919 9.0721C23.5085 9.0721 8.60576 23.9748 8.60576 42.3582C8.60576 52.6289 13.2575 61.8131 20.569 67.919C21.4569 68.6606 22.3841 69.3567 23.347 70.0039L22.8185 76.045L29.1207 73.1063ZM0.290446 42.3582C0.290446 54.9296 5.87199 66.195 14.6666 73.8141L14.5348 75.3203L13.2795 89.668L26.3327 83.5813L29.5306 82.09C33.4433 83.3063 37.5974 83.9597 41.8919 83.9597C64.8677 83.9597 83.4933 65.3341 83.4933 42.3582C83.4933 19.3824 64.8677 0.756783 41.8919 0.756783C18.916 0.756783 0.290446 19.3824 0.290446 42.3582ZM22.5146 52.3231L33.6148 32.7865C33.8675 32.3419 34.4579 32.2285 34.8573 32.548L46.5695 41.9178C46.8732 42.1607 47.3047 42.1607 47.6084 41.9178L60.5147 31.5927C60.8875 31.2945 61.3869 31.7571 61.118 32.1516L47.5946 51.9859C47.3218 52.386 46.7662 52.4693 46.3881 52.1668L34.6656 42.7888C34.3398 42.5282 33.8713 42.5493 33.5703 42.8383L23.164 52.8284C22.8181 53.1604 22.2777 52.74 22.5146 52.3231Z" fill="white"/>
</svg>
